<?xml version="1.0" standalone="no"?>
<svg viewBox="0 0 200 200" xmlns="http://www.w3.org/2000/svg">
  <path fill="#FFD6E8" d="M41,-63.3C54.7,-55,68.4,-46.3,77.1,-33.4C85.7,-20.5,89.4,-3.6,86,11.6C82.7,26.8,72.2,40.1,60.3,50.1C48.3,60.1,34.9,66.6,21.1,69.8C7.2,72.9,-7,72.7,-20.5,69.1C-34,65.5,-46.8,58.5,-58.3,48.6C-69.8,38.7,-80,25.9,-78.9,13.2C-77.8,0.6,-65.3,-11.7,-56.1,-23C-46.8,-34.2,-40.9,-44.2,-32.1,-54.7C-23.3,-65.2,-11.6,-76.1,1,-77.7C13.7,-79.3,27.3,-71.6,41,-63.3Z" transform="translate(100 100)" />
</svg>
